<svg width="13" height="8" viewBox="0 0 13 8" fill="none" xmlns="http://www.w3.org/2000/svg">
<path d="M12.8701 0.781518L12.2188 0.130306C12.1321 0.0433441 12.0321 0 11.9191 0C11.8063 0 11.7064 0.0433441 11.6196 0.130306L6.50007 5.24961L1.38072 0.130443C1.29389 0.0434811 1.19397 0.000136801 1.08109 0.000136801C0.968171 0.000136801 0.868251 0.0434811 0.781472 0.130443L0.130306 0.7817C0.0433441 0.86848 0 0.968399 0 1.08132C0 1.19415 0.043481 1.29407 0.130306 1.38085L6.20045 7.45113C6.28723 7.53795 6.38719 7.58134 6.50007 7.58134C6.61295 7.58134 6.71273 7.53795 6.79946 7.45113L12.8701 1.38085C12.9569 1.29403 13 1.19411 13 1.08132C13 0.968399 12.9569 0.86848 12.8701 0.781518Z" fill="#162440"/>
</svg>
