<svg width="19" height="19" viewBox="0 0 19 19" fill="none" xmlns="http://www.w3.org/2000/svg">
<path d="M8.78156e-07 9.50201C-0.000730235 7.80174 0.45507 6.13244 1.31982 4.66839C2.18457 3.20433 3.42656 1.9992 4.91613 1.1788C6.40571 0.358394 8.08825 -0.0471953 9.78811 0.00436989C11.488 0.0559351 13.1428 0.562764 14.5799 1.47195L15.7985 0.254484C15.9194 0.133609 16.0735 0.0513491 16.2413 0.0181301C16.409 -0.0150889 16.5829 0.00222821 16.7408 0.0678868C16.8987 0.133545 17.0335 0.24459 17.1282 0.386946C17.2229 0.529303 17.2732 0.696564 17.2727 0.867532V4.32132C17.2727 4.55032 17.1817 4.76995 17.0198 4.93187C16.8578 5.0938 16.6381 5.18477 16.4091 5.18477H12.9545C12.7838 5.18474 12.6168 5.13408 12.4748 5.0392C12.3328 4.94432 12.2222 4.80948 12.1568 4.65173C12.0915 4.49397 12.0744 4.32039 12.1077 4.15292C12.141 3.98546 12.2232 3.83162 12.344 3.71087L13.3181 2.7369C12.136 2.0686 10.7993 1.72184 9.44131 1.73119C8.08332 1.74054 6.75151 2.10569 5.57871 2.7902C4.40591 3.47472 3.4331 4.45468 2.75731 5.63237C2.08153 6.81005 1.72637 8.14428 1.72727 9.50201C1.72727 9.73101 1.63628 9.95063 1.47432 10.1126C1.31236 10.2745 1.09269 10.3655 0.863637 10.3655C0.634587 10.3655 0.414917 10.2745 0.252954 10.1126C0.0909908 9.95063 8.78156e-07 9.73101 8.78156e-07 9.50201ZM18.1364 8.63856C17.9073 8.63856 17.6876 8.72953 17.5257 8.89146C17.3637 9.05339 17.2727 9.27301 17.2727 9.50201C17.2704 11.5623 16.4508 13.5376 14.9936 14.9944C13.5365 16.4513 11.5608 17.2708 9.5 17.273C8.1616 17.2754 6.84578 16.9284 5.68273 16.2663L6.65605 15.2932C6.77679 15.1724 6.85901 15.0186 6.89232 14.8511C6.92563 14.6836 6.90853 14.51 6.84318 14.3523C6.77783 14.1945 6.66716 14.0597 6.52517 13.9648C6.38318 13.8699 6.21624 13.8193 6.04546 13.8193H2.59091C2.36186 13.8193 2.14219 13.9102 1.98023 14.0721C1.81826 14.2341 1.72727 14.4537 1.72727 14.6827V18.1365C1.72723 18.3073 1.77783 18.4742 1.87268 18.6162C1.96753 18.7582 2.10236 18.8689 2.26014 18.9343C2.36492 18.978 2.47738 19.0003 2.59091 18.9999C2.81994 18.9999 3.03957 18.9089 3.2015 18.7469L4.42009 17.5321C5.93816 18.497 7.70114 19.0064 9.5 18.9999C12.0186 18.997 14.4333 17.9953 16.2142 16.2148C17.9952 14.4342 18.997 12.0201 19 9.50201C19 9.27301 18.909 9.05339 18.747 8.89146C18.5851 8.72953 18.3654 8.63856 18.1364 8.63856Z" fill="white"/>
</svg>
