<svg width="62" height="62" viewBox="0 0 62 62" fill="none" xmlns="http://www.w3.org/2000/svg">
<path d="M31 0C35.071 0 39.1021 0.801839 42.8632 2.35973C46.6243 3.91763 50.0417 6.20107 52.9203 9.07969C55.7989 11.9583 58.0824 15.3757 59.6403 19.1368C61.1982 22.8979 62 26.929 62 31C62 39.2217 58.7339 47.1067 52.9203 52.9203C47.1067 58.7339 39.2217 62 31 62C26.929 62 22.8979 61.1982 19.1368 59.6403C15.3757 58.0824 11.9583 55.7989 9.07969 52.9203C3.26606 47.1067 0 39.2217 0 31C0 22.7783 3.26606 14.8933 9.07969 9.07969C14.8933 3.26606 22.7783 0 31 0V0ZM31 6.2C18.352 6.2 7.905 15.655 6.386 27.9H19.003C20.367 22.537 25.234 18.6 31 18.6C36.766 18.6 41.633 22.537 42.997 27.9H55.614C54.095 15.655 43.648 6.2 31 6.2ZM31 55.8C43.648 55.8 54.095 46.345 55.614 34.1H42.997C41.633 39.463 36.766 43.4 31 43.4C25.234 43.4 20.367 39.463 19.003 34.1H6.386C7.905 46.345 18.352 55.8 31 55.8ZM31 24.8C29.3557 24.8 27.7787 25.4532 26.6159 26.6159C25.4532 27.7787 24.8 29.3557 24.8 31C24.8 32.6443 25.4532 34.2213 26.6159 35.3841C27.7787 36.5468 29.3557 37.2 31 37.2C32.6443 37.2 34.2213 36.5468 35.3841 35.3841C36.5468 34.2213 37.2 32.6443 37.2 31C37.2 29.3557 36.5468 27.7787 35.3841 26.6159C34.2213 25.4532 32.6443 24.8 31 24.8Z" fill="white"/>
</svg>
